<svg style="left:0; top:0; width:100%; height:100%;" width="700" height="900" viewBox="0 0 700 900" fill="none" xmlns="http://www.w3.org/2000/svg">
<g clip-path="url(#clip0_321_25)">
<rect x="300.5" y="400.5" width="99" height="99" rx="49.5" stroke="white"/>
<rect x="250.5" y="350.5" width="199" height="199" rx="99.5" stroke="white"/>
<rect x="200.5" y="300.5" width="299" height="299" rx="149.5" stroke="white"/>
<rect x="150.5" y="250.5" width="399" height="399" rx="199.5" stroke="white"/>
<rect x="100.5" y="200.5" width="499" height="499" rx="249.5" stroke="white"/>
<path d="M339.273 447.455L336.852 454H335.83L333.409 447.455H334.5L336.307 452.67H336.375L338.182 447.455H339.273ZM340.6 454V447.455H341.606V454H340.6ZM341.112 446.364C340.915 446.364 340.746 446.297 340.604 446.163C340.465 446.03 340.396 445.869 340.396 445.682C340.396 445.494 340.465 445.334 340.604 445.2C340.746 445.067 340.915 445 341.112 445C341.308 445 341.475 445.067 341.614 445.2C341.756 445.334 341.827 445.494 341.827 445.682C341.827 445.869 341.756 446.03 341.614 446.163C341.475 446.297 341.308 446.364 341.112 446.364ZM348.084 448.92L347.181 449.176C347.124 449.026 347.04 448.879 346.929 448.737C346.821 448.592 346.674 448.473 346.486 448.379C346.299 448.286 346.059 448.239 345.766 448.239C345.365 448.239 345.032 448.331 344.765 448.516C344.5 448.697 344.368 448.929 344.368 449.21C344.368 449.46 344.459 449.658 344.641 449.803C344.823 449.947 345.107 450.068 345.493 450.165L346.465 450.403C347.05 450.545 347.486 450.763 347.773 451.055C348.06 451.345 348.203 451.719 348.203 452.176C348.203 452.551 348.096 452.886 347.88 453.182C347.667 453.477 347.368 453.71 346.985 453.881C346.601 454.051 346.155 454.136 345.647 454.136C344.979 454.136 344.426 453.991 343.989 453.702C343.551 453.412 343.275 452.989 343.158 452.432L344.113 452.193C344.203 452.545 344.375 452.81 344.628 452.986C344.884 453.162 345.218 453.25 345.63 453.25C346.098 453.25 346.471 453.151 346.746 452.952C347.025 452.75 347.164 452.509 347.164 452.227C347.164 452 347.084 451.81 346.925 451.656C346.766 451.5 346.522 451.384 346.192 451.307L345.101 451.051C344.502 450.909 344.061 450.689 343.78 450.391C343.502 450.089 343.363 449.713 343.363 449.261C343.363 448.892 343.466 448.565 343.674 448.281C343.884 447.997 344.169 447.774 344.53 447.612C344.894 447.45 345.306 447.369 345.766 447.369C346.414 447.369 346.922 447.511 347.292 447.795C347.664 448.08 347.928 448.455 348.084 448.92ZM349.717 454V447.455H350.723V454H349.717ZM350.229 446.364C350.033 446.364 349.864 446.297 349.722 446.163C349.582 446.03 349.513 445.869 349.513 445.682C349.513 445.494 349.582 445.334 349.722 445.2C349.864 445.067 350.033 445 350.229 445C350.425 445 350.592 445.067 350.732 445.2C350.874 445.334 350.945 445.494 350.945 445.682C350.945 445.869 350.874 446.03 350.732 446.163C350.592 446.297 350.425 446.364 350.229 446.364ZM355.224 454.136C354.633 454.136 354.115 453.996 353.669 453.714C353.225 453.433 352.879 453.04 352.629 452.534C352.382 452.028 352.258 451.437 352.258 450.761C352.258 450.08 352.382 449.484 352.629 448.976C352.879 448.467 353.225 448.072 353.669 447.791C354.115 447.51 354.633 447.369 355.224 447.369C355.815 447.369 356.332 447.51 356.775 447.791C357.221 448.072 357.568 448.467 357.815 448.976C358.065 449.484 358.19 450.08 358.19 450.761C358.19 451.437 358.065 452.028 357.815 452.534C357.568 453.04 357.221 453.433 356.775 453.714C356.332 453.996 355.815 454.136 355.224 454.136ZM355.224 453.233C355.673 453.233 356.042 453.118 356.332 452.888C356.622 452.658 356.836 452.355 356.975 451.98C357.115 451.605 357.184 451.199 357.184 450.761C357.184 450.324 357.115 449.916 356.975 449.538C356.836 449.161 356.622 448.855 356.332 448.622C356.042 448.389 355.673 448.273 355.224 448.273C354.775 448.273 354.406 448.389 354.116 448.622C353.826 448.855 353.612 449.161 353.473 449.538C353.333 449.916 353.264 450.324 353.264 450.761C353.264 451.199 353.333 451.605 353.473 451.98C353.612 452.355 353.826 452.658 354.116 452.888C354.406 453.118 354.775 453.233 355.224 453.233ZM360.731 450.062V454H359.725V447.455H360.697V448.477H360.782C360.935 448.145 361.168 447.878 361.481 447.676C361.793 447.472 362.197 447.369 362.691 447.369C363.134 447.369 363.522 447.46 363.854 447.642C364.187 447.821 364.445 448.094 364.63 448.46C364.815 448.824 364.907 449.284 364.907 449.841V454H363.901V449.909C363.901 449.395 363.768 448.994 363.501 448.707C363.234 448.418 362.867 448.273 362.401 448.273C362.08 448.273 361.793 448.342 361.54 448.482C361.29 448.621 361.093 448.824 360.948 449.091C360.803 449.358 360.731 449.682 360.731 450.062Z" fill="white"/>
<path d="M722.334 449.749C722.334 451.221 723.528 452.415 725 452.415C726.473 452.415 727.667 451.221 727.667 449.749C727.667 448.276 726.473 447.082 725 447.082C723.528 447.082 722.334 448.276 722.334 449.749ZM400 449.749V450.249H725V449.749V449.249H400V449.749Z" fill="white"/>
<path d="M-22.3337 450.252C-22.3337 448.779 -23.5276 447.585 -25.0004 447.585C-26.4732 447.585 -27.6671 448.779 -27.6671 450.252C-27.6671 451.725 -26.4732 452.919 -25.0004 452.919C-23.5276 452.919 -22.3337 451.725 -22.3337 450.252ZM300 450.252V449.752H-25.0004V450.252V450.752H300V450.252Z" fill="white"/>
</g>
<defs>
<clipPath id="clip0_321_25">
<rect width="700" height="900" fill="white"/>
</clipPath>
</defs>
</svg>
