<svg style="left:0; top:0; width:100%; height:100%;" width="900" height="700" viewBox="0 0 900 700" fill="none" xmlns="http://www.w3.org/2000/svg">
<g clip-path="url(#clip0_321_23)">
<rect x="69" y="67" width="1.5" height="560" rx="0.75" fill="white"/>
<rect x="69" y="627" width="1" height="758" rx="0.5" transform="rotate(-90 69 627)" fill="white"/>
<circle cx="243.5" cy="591.5" r="4.5" fill="white"/>
<circle cx="193.5" cy="570.5" r="4.5" fill="white"/>
<circle cx="202.5" cy="586.5" r="4.5" fill="white"/>
<circle cx="178.5" cy="591.5" r="4.5" fill="white"/>
<circle cx="178.5" cy="582.5" r="4.5" fill="white"/>
<circle cx="234.5" cy="561.5" r="4.5" fill="white"/>
<circle cx="325.5" cy="553.5" r="4.5" fill="white"/>
<circle cx="275.5" cy="532.5" r="4.5" fill="white"/>
<circle cx="284.5" cy="548.5" r="4.5" fill="white"/>
<circle cx="260.5" cy="553.5" r="4.5" fill="white"/>
<circle cx="260.5" cy="544.5" r="4.5" fill="white"/>
<circle cx="316.5" cy="523.5" r="4.5" fill="white"/>
<circle cx="285.59" cy="571.268" r="4.5" transform="rotate(163.629 285.59 571.268)" fill="white"/>
<circle cx="339.481" cy="577.324" r="4.5" transform="rotate(163.629 339.481 577.324)" fill="white"/>
<circle cx="326.337" cy="564.51" r="4.5" transform="rotate(163.629 326.337 564.51)" fill="white"/>
<circle cx="347.954" cy="552.948" r="4.5" transform="rotate(163.629 347.954 552.948)" fill="white"/>
<circle cx="350.491" cy="561.583" r="4.5" transform="rotate(163.629 350.491 561.583)" fill="white"/>
<circle cx="302.681" cy="597.516" r="4.5" transform="rotate(163.629 302.681 597.516)" fill="white"/>
<circle cx="248.5" cy="523.5" r="4.5" fill="white"/>
<circle cx="301.5" cy="514.5" r="4.5" fill="white"/>
<circle cx="292.5" cy="465.5" r="4.5" fill="white"/>
<circle cx="283.5" cy="496.5" r="4.5" fill="white"/>
<circle cx="368.455" cy="496.012" r="4.5" transform="rotate(-69.7104 368.455 496.012)" fill="white"/>
<circle cx="331.42" cy="535.628" r="4.5" transform="rotate(-69.7104 331.42 535.628)" fill="white"/>
<circle cx="349.548" cy="532.734" r="4.5" transform="rotate(-69.7104 349.548 532.734)" fill="white"/>
<circle cx="345.916" cy="556.979" r="4.5" transform="rotate(-69.7104 345.916 556.979)" fill="white"/>
<circle cx="337.474" cy="553.858" r="4.5" transform="rotate(-69.7104 337.474 553.858)" fill="white"/>
<circle cx="337.196" cy="494.051" r="4.5" transform="rotate(-69.7104 337.196 494.051)" fill="white"/>
<circle cx="371.282" cy="539.607" r="4.5" transform="rotate(93.9185 371.282 539.607)" fill="white"/>
<circle cx="395.649" cy="491.16" r="4.5" transform="rotate(93.9185 395.649 491.16)" fill="white"/>
<circle cx="379.072" cy="499.045" r="4.5" transform="rotate(93.9185 379.072 499.045)" fill="white"/>
<circle cx="375.724" cy="474.76" r="4.5" transform="rotate(93.9185 375.724 474.76)" fill="white"/>
<circle cx="384.703" cy="475.375" r="4.5" transform="rotate(93.9185 384.703 475.375)" fill="white"/>
<circle cx="313.616" cy="557.832" r="4.5" transform="rotate(-69.7104 313.616 557.832)" fill="white"/>
<circle cx="323.553" cy="504.999" r="4.5" transform="rotate(-69.7104 323.553 504.999)" fill="white"/>
<circle cx="274.473" cy="496.449" r="4.5" transform="rotate(-69.7104 274.473 496.449)" fill="white"/>
<circle cx="300.428" cy="515.64" r="4.5" transform="rotate(-69.7104 300.428 515.64)" fill="white"/>
<circle cx="385.5" cy="479.641" r="4.5" fill="white"/>
<circle cx="376.5" cy="449.641" r="4.5" fill="white"/>
<circle cx="417.5" cy="420.641" r="4.5" fill="white"/>
<circle cx="426.5" cy="436.641" r="4.5" fill="white"/>
<circle cx="402.5" cy="441.641" r="4.5" fill="white"/>
<circle cx="402.5" cy="432.641" r="4.5" fill="white"/>
<circle cx="427.59" cy="459.409" r="4.5" transform="rotate(163.629 427.59 459.409)" fill="white"/>
<circle cx="444.681" cy="485.656" r="4.5" transform="rotate(163.629 444.681 485.656)" fill="white"/>
<circle cx="390.5" cy="411.641" r="4.5" fill="white"/>
<circle cx="443.5" cy="402.641" r="4.5" fill="white"/>
<circle cx="442.428" cy="403.781" r="4.5" transform="rotate(-69.7104 442.428 403.781)" fill="white"/>
<circle cx="376.5" cy="588.641" r="4.5" fill="white"/>
<circle cx="367.5" cy="558.641" r="4.5" fill="white"/>
<circle cx="408.5" cy="529.641" r="4.5" fill="white"/>
<circle cx="417.5" cy="545.641" r="4.5" fill="white"/>
<circle cx="393.5" cy="550.641" r="4.5" fill="white"/>
<circle cx="393.5" cy="541.641" r="4.5" fill="white"/>
<circle cx="418.59" cy="568.409" r="4.5" transform="rotate(163.629 418.59 568.409)" fill="white"/>
<circle cx="435.681" cy="594.656" r="4.5" transform="rotate(163.629 435.681 594.656)" fill="white"/>
<circle cx="381.5" cy="520.641" r="4.5" fill="white"/>
<circle cx="434.5" cy="511.641" r="4.5" fill="white"/>
<circle cx="433.428" cy="512.781" r="4.5" transform="rotate(-69.7104 433.428 512.781)" fill="white"/>
<circle cx="147.5" cy="604.252" r="4.5" fill="white"/>
<circle cx="97.5" cy="583.252" r="4.5" fill="white"/>
<circle cx="106.5" cy="599.252" r="4.5" fill="white"/>
<circle cx="82.5" cy="604.252" r="4.5" fill="white"/>
<circle cx="82.5" cy="595.252" r="4.5" fill="white"/>
<circle cx="138.5" cy="574.252" r="4.5" fill="white"/>
<circle cx="229.5" cy="566.252" r="4.5" fill="white"/>
<circle cx="179.5" cy="545.252" r="4.5" fill="white"/>
<circle cx="188.5" cy="561.252" r="4.5" fill="white"/>
<circle cx="164.5" cy="566.252" r="4.5" fill="white"/>
<circle cx="164.5" cy="557.252" r="4.5" fill="white"/>
<circle cx="220.5" cy="536.252" r="4.5" fill="white"/>
<circle cx="189.59" cy="584.02" r="4.5" transform="rotate(163.629 189.59 584.02)" fill="white"/>
<circle cx="243.481" cy="590.076" r="4.5" transform="rotate(163.629 243.481 590.076)" fill="white"/>
<circle cx="230.337" cy="577.262" r="4.5" transform="rotate(163.629 230.337 577.262)" fill="white"/>
<circle cx="251.954" cy="565.7" r="4.5" transform="rotate(163.629 251.954 565.7)" fill="white"/>
<circle cx="254.491" cy="574.335" r="4.5" transform="rotate(163.629 254.491 574.335)" fill="white"/>
<circle cx="206.681" cy="610.267" r="4.5" transform="rotate(163.629 206.681 610.267)" fill="white"/>
<circle cx="152.5" cy="536.252" r="4.5" fill="white"/>
<circle cx="205.5" cy="527.252" r="4.5" fill="white"/>
<circle cx="235.42" cy="548.38" r="4.5" transform="rotate(-69.7104 235.42 548.38)" fill="white"/>
<circle cx="253.548" cy="545.486" r="4.5" transform="rotate(-69.7104 253.548 545.486)" fill="white"/>
<circle cx="249.916" cy="569.731" r="4.5" transform="rotate(-69.7104 249.916 569.731)" fill="white"/>
<circle cx="241.474" cy="566.61" r="4.5" transform="rotate(-69.7104 241.474 566.61)" fill="white"/>
<circle cx="275.282" cy="552.359" r="4.5" transform="rotate(93.9185 275.282 552.359)" fill="white"/>
<circle cx="283.072" cy="511.797" r="4.5" transform="rotate(93.9185 283.072 511.797)" fill="white"/>
<circle cx="217.616" cy="570.584" r="4.5" transform="rotate(-69.7104 217.616 570.584)" fill="white"/>
<circle cx="227.553" cy="517.751" r="4.5" transform="rotate(-69.7104 227.553 517.751)" fill="white"/>
<circle cx="204.428" cy="528.392" r="4.5" transform="rotate(-69.7104 204.428 528.392)" fill="white"/>
<circle cx="280.5" cy="601.393" r="4.5" fill="white"/>
<circle cx="271.5" cy="571.393" r="4.5" fill="white"/>
<circle cx="312.5" cy="542.393" r="4.5" fill="white"/>
<circle cx="321.5" cy="558.393" r="4.5" fill="white"/>
<circle cx="297.5" cy="563.393" r="4.5" fill="white"/>
<circle cx="297.5" cy="554.393" r="4.5" fill="white"/>
<circle cx="322.59" cy="581.161" r="4.5" transform="rotate(163.629 322.59 581.161)" fill="white"/>
<circle cx="339.681" cy="607.408" r="4.5" transform="rotate(163.629 339.681 607.408)" fill="white"/>
<circle cx="285.5" cy="533.393" r="4.5" fill="white"/>
<circle cx="338.5" cy="524.393" r="4.5" fill="white"/>
<circle cx="337.428" cy="525.533" r="4.5" transform="rotate(-69.7104 337.428 525.533)" fill="white"/>
<circle cx="381.5" cy="389.641" r="4.5" fill="white"/>
<circle cx="372.5" cy="359.641" r="4.5" fill="white"/>
<circle cx="413.5" cy="330.641" r="4.5" fill="white"/>
<circle cx="422.5" cy="346.641" r="4.5" fill="white"/>
<circle cx="398.5" cy="351.641" r="4.5" fill="white"/>
<circle cx="398.5" cy="342.641" r="4.5" fill="white"/>
<circle cx="423.59" cy="369.409" r="4.5" transform="rotate(163.629 423.59 369.409)" fill="white"/>
<circle cx="440.681" cy="395.656" r="4.5" transform="rotate(163.629 440.681 395.656)" fill="white"/>
<circle cx="386.5" cy="321.641" r="4.5" fill="white"/>
<circle cx="439.5" cy="312.641" r="4.5" fill="white"/>
<circle cx="438.428" cy="313.781" r="4.5" transform="rotate(-69.7104 438.428 313.781)" fill="white"/>
<circle cx="446.5" cy="281.641" r="4.5" fill="white"/>
<circle cx="437.5" cy="251.641" r="4.5" fill="white"/>
<circle cx="478.5" cy="222.641" r="4.5" fill="white"/>
<circle cx="487.5" cy="238.641" r="4.5" fill="white"/>
<circle cx="463.5" cy="243.641" r="4.5" fill="white"/>
<circle cx="463.5" cy="234.641" r="4.5" fill="white"/>
<circle cx="488.59" cy="261.409" r="4.5" transform="rotate(163.629 488.59 261.409)" fill="white"/>
<circle cx="505.681" cy="287.656" r="4.5" transform="rotate(163.629 505.681 287.656)" fill="white"/>
<circle cx="451.5" cy="213.641" r="4.5" fill="white"/>
<circle cx="504.5" cy="204.641" r="4.5" fill="white"/>
<circle cx="503.428" cy="205.781" r="4.5" transform="rotate(-69.7104 503.428 205.781)" fill="white"/>
<circle cx="604.5" cy="232.641" r="4.5" fill="white"/>
<circle cx="595.5" cy="202.641" r="4.5" fill="white"/>
<circle cx="636.5" cy="173.641" r="4.5" fill="white"/>
<circle cx="645.5" cy="189.641" r="4.5" fill="white"/>
<circle cx="621.5" cy="194.641" r="4.5" fill="white"/>
<circle cx="621.5" cy="185.641" r="4.5" fill="white"/>
<circle cx="646.59" cy="212.409" r="4.5" transform="rotate(163.629 646.59 212.409)" fill="white"/>
<circle cx="663.681" cy="238.656" r="4.5" transform="rotate(163.629 663.681 238.656)" fill="white"/>
<circle cx="609.5" cy="164.641" r="4.5" fill="white"/>
<circle cx="662.5" cy="155.641" r="4.5" fill="white"/>
<circle cx="661.428" cy="156.781" r="4.5" transform="rotate(-69.7104 661.428 156.781)" fill="white"/>
<circle cx="776.5" cy="191.641" r="4.5" fill="white"/>
<circle cx="767.5" cy="161.641" r="4.5" fill="white"/>
<circle cx="808.5" cy="132.641" r="4.5" fill="white"/>
<circle cx="817.5" cy="148.641" r="4.5" fill="white"/>
<circle cx="762.5" cy="195.5" r="4.5" fill="white"/>
<circle cx="793.5" cy="144.641" r="4.5" fill="white"/>
<circle cx="818.59" cy="171.409" r="4.5" transform="rotate(163.629 818.59 171.409)" fill="white"/>
<circle cx="835.681" cy="197.656" r="4.5" transform="rotate(163.629 835.681 197.656)" fill="white"/>
<circle cx="781.5" cy="123.641" r="4.5" fill="white"/>
<circle cx="834.5" cy="114.641" r="4.5" fill="white"/>
<circle cx="833.428" cy="115.781" r="4.5" transform="rotate(-69.7104 833.428 115.781)" fill="white"/>
<circle cx="604.5" cy="232.641" r="4.5" fill="white"/>
<circle cx="595.5" cy="202.641" r="4.5" fill="white"/>
<circle cx="636.5" cy="173.641" r="4.5" fill="white"/>
<circle cx="645.5" cy="189.641" r="4.5" fill="white"/>
<circle cx="621.5" cy="194.641" r="4.5" fill="white"/>
<circle cx="621.5" cy="185.641" r="4.5" fill="white"/>
<circle cx="646.59" cy="212.409" r="4.5" transform="rotate(163.629 646.59 212.409)" fill="white"/>
<circle cx="663.681" cy="238.656" r="4.5" transform="rotate(163.629 663.681 238.656)" fill="white"/>
<circle cx="609.5" cy="164.641" r="4.5" fill="white"/>
<circle cx="662.5" cy="155.641" r="4.5" fill="white"/>
<circle cx="661.428" cy="156.781" r="4.5" transform="rotate(-69.7104 661.428 156.781)" fill="white"/>
<circle cx="342.948" cy="437.074" r="4.5" transform="rotate(29.0392 342.948 437.074)" fill="white"/>
<circle cx="309.427" cy="394.444" r="4.5" transform="rotate(29.0392 309.427 394.444)" fill="white"/>
<circle cx="309.529" cy="412.801" r="4.5" transform="rotate(29.0392 309.529 412.801)" fill="white"/>
<circle cx="286.119" cy="405.523" r="4.5" transform="rotate(29.0392 286.119 405.523)" fill="white"/>
<circle cx="290.488" cy="397.654" r="4.5" transform="rotate(29.0392 290.488 397.654)" fill="white"/>
<circle cx="349.642" cy="406.477" r="4.5" transform="rotate(29.0392 349.642 406.477)" fill="white"/>
<circle cx="299.43" cy="433.236" r="4.5" transform="rotate(-167.332 299.43 433.236)" fill="white"/>
<circle cx="343.607" cy="464.69" r="4.5" transform="rotate(-167.332 343.607 464.69)" fill="white"/>
<circle cx="338.336" cy="447.106" r="4.5" transform="rotate(-167.332 338.336 447.106)" fill="white"/>
<circle cx="362.847" cy="447.49" r="4.5" transform="rotate(-167.332 362.847 447.49)" fill="white"/>
<circle cx="360.874" cy="456.272" r="4.5" transform="rotate(-167.332 360.874 456.272)" fill="white"/>
<circle cx="290.19" cy="373.469" r="4.5" transform="rotate(29.0392 290.19 373.469)" fill="white"/>
<circle cx="340.896" cy="391.327" r="4.5" transform="rotate(29.0392 340.896 391.327)" fill="white"/>
<circle cx="356.812" cy="344.119" r="4.5" transform="rotate(29.0392 356.812 344.119)" fill="white"/>
<circle cx="333.896" cy="366.852" r="4.5" transform="rotate(29.0392 333.896 366.852)" fill="white"/>
<circle cx="441.743" cy="391.306" r="4.5" transform="rotate(58.5769 441.743 391.306)" fill="white"/>
<circle cx="487.865" cy="411.174" r="4.5" transform="rotate(58.5769 487.865 411.174)" fill="white"/>
<circle cx="478.905" cy="427.196" r="4.5" transform="rotate(58.5769 478.905 427.196)" fill="white"/>
<circle cx="462.125" cy="409.322" r="4.5" transform="rotate(58.5769 462.125 409.322)" fill="white"/>
<circle cx="469.805" cy="404.63" r="4.5" transform="rotate(58.5769 469.805 404.63)" fill="white"/>
<circle cx="481.469" cy="383.441" r="4.5" transform="rotate(58.5769 481.469 383.441)" fill="white"/>
<circle cx="516.781" cy="423.976" r="4.5" transform="rotate(58.5769 516.781 423.976)" fill="white"/>
<circle cx="515.249" cy="423.656" r="4.5" transform="rotate(-11.1335 515.249 423.656)" fill="white"/>
<circle cx="495.55" cy="364.292" r="4.5" transform="rotate(58.5769 495.55 364.292)" fill="white"/>
<circle cx="516.458" cy="340.971" r="4.5" transform="rotate(58.5769 516.458 340.971)" fill="white"/>
<circle cx="562.581" cy="360.839" r="4.5" transform="rotate(58.5769 562.581 360.839)" fill="white"/>
<circle cx="553.619" cy="376.86" r="4.5" transform="rotate(58.5769 553.619 376.86)" fill="white"/>
<circle cx="536.84" cy="358.987" r="4.5" transform="rotate(58.5769 536.84 358.987)" fill="white"/>
<circle cx="544.521" cy="354.295" r="4.5" transform="rotate(58.5769 544.521 354.295)" fill="white"/>
<circle cx="534.758" cy="389.661" r="4.5" transform="rotate(-137.794 534.758 389.661)" fill="white"/>
<circle cx="521.271" cy="417.928" r="4.5" transform="rotate(-137.794 521.271 417.928)" fill="white"/>
<circle cx="556.185" cy="333.106" r="4.5" transform="rotate(58.5769 556.185 333.106)" fill="white"/>
<circle cx="591.496" cy="373.641" r="4.5" transform="rotate(58.5769 591.496 373.641)" fill="white"/>
<circle cx="589.964" cy="373.321" r="4.5" transform="rotate(-11.1335 589.964 373.321)" fill="white"/>
<circle cx="642.507" cy="340.132" r="4.5" transform="rotate(58.5769 642.507 340.132)" fill="white"/>
<circle cx="434.975" cy="356.123" r="4.5" transform="rotate(87.6161 434.975 356.123)" fill="white"/>
<circle cx="464.574" cy="345.883" r="4.5" transform="rotate(87.6161 464.574 345.883)" fill="white"/>
<circle cx="424.01" cy="357.418" r="4.5" transform="rotate(-108.755 424.01 357.418)" fill="white"/>
<circle cx="436.461" cy="378.535" r="4.5" transform="rotate(-108.755 436.461 378.535)" fill="white"/>
<circle cx="472.943" cy="330.522" r="4.5" transform="rotate(87.6161 472.943 330.522)" fill="white"/>
<circle cx="521.525" cy="319.492" r="4.5" transform="rotate(87.6161 521.525 319.492)" fill="white"/>
<circle cx="490.178" cy="311.789" r="4.5" transform="rotate(87.6161 490.178 311.789)" fill="white"/>
<circle cx="538.771" cy="255.219" r="4.5" transform="rotate(93.278 538.771 255.219)" fill="white"/>
<circle cx="565.379" cy="297.81" r="4.5" transform="rotate(93.278 565.379 297.81)" fill="white"/>
<circle cx="548.891" cy="305.881" r="4.5" transform="rotate(93.278 548.891 305.881)" fill="white"/>
<circle cx="545.271" cy="281.634" r="4.5" transform="rotate(93.278 545.271 281.634)" fill="white"/>
<circle cx="554.256" cy="282.149" r="4.5" transform="rotate(93.278 554.256 282.149)" fill="white"/>
<circle cx="575.908" cy="271.369" r="4.5" transform="rotate(93.278 575.908 271.369)" fill="white"/>
<circle cx="581.863" cy="324.797" r="4.5" transform="rotate(93.278 581.863 324.797)" fill="white"/>
<circle cx="580.785" cy="323.662" r="4.5" transform="rotate(23.5676 580.785 323.662)" fill="white"/>
<circle cx="598.386" cy="263.642" r="4.5" transform="rotate(93.278 598.386 263.642)" fill="white"/>
<circle cx="628.852" cy="256.372" r="4.5" transform="rotate(93.278 628.852 256.372)" fill="white"/>
<circle cx="655.461" cy="298.963" r="4.5" transform="rotate(93.278 655.461 298.963)" fill="white"/>
<circle cx="638.972" cy="307.033" r="4.5" transform="rotate(93.278 638.972 307.033)" fill="white"/>
<circle cx="635.352" cy="282.787" r="4.5" transform="rotate(93.278 635.352 282.787)" fill="white"/>
<circle cx="644.338" cy="283.302" r="4.5" transform="rotate(93.278 644.338 283.302)" fill="white"/>
<circle cx="616.178" cy="306.819" r="4.5" transform="rotate(-103.093 616.178 306.819)" fill="white"/>
<circle cx="588.997" cy="322.381" r="4.5" transform="rotate(-103.093 588.997 322.381)" fill="white"/>
<circle cx="665.99" cy="272.522" r="4.5" transform="rotate(93.278 665.99 272.522)" fill="white"/>
<circle cx="671.944" cy="325.95" r="4.5" transform="rotate(93.278 671.944 325.95)" fill="white"/>
<circle cx="670.866" cy="324.814" r="4.5" transform="rotate(23.5676 670.866 324.814)" fill="white"/>
<circle cx="732.958" cy="327.441" r="4.5" transform="rotate(93.278 732.958 327.441)" fill="white"/>
<circle cx="553.236" cy="222.441" r="4.5" transform="rotate(122.317 553.236 222.441)" fill="white"/>
<circle cx="583.4" cy="230.873" r="4.5" transform="rotate(122.317 583.4 230.873)" fill="white"/>
<circle cx="543.484" cy="217.262" r="4.5" transform="rotate(-74.0539 543.484 217.262)" fill="white"/>
<circle cx="541.699" cy="241.712" r="4.5" transform="rotate(-74.0539 541.699 241.712)" fill="white"/>
<circle cx="599.025" cy="223.009" r="4.5" transform="rotate(122.317 599.025 223.009)" fill="white"/>
<circle cx="645.245" cy="241.597" r="4.5" transform="rotate(122.317 645.245 241.597)" fill="white"/>
<circle cx="623.86" cy="217.419" r="4.5" transform="rotate(122.317 623.86 217.419)" fill="white"/>
<circle cx="695.75" cy="315.009" r="4.5" transform="rotate(93.278 695.75 315.009)" fill="white"/>
<circle cx="722.358" cy="357.6" r="4.5" transform="rotate(93.278 722.358 357.6)" fill="white"/>
<circle cx="705.87" cy="365.67" r="4.5" transform="rotate(93.278 705.87 365.67)" fill="white"/>
<circle cx="702.25" cy="341.424" r="4.5" transform="rotate(93.278 702.25 341.424)" fill="white"/>
<circle cx="711.235" cy="341.938" r="4.5" transform="rotate(93.278 711.235 341.938)" fill="white"/>
<circle cx="732.888" cy="331.159" r="4.5" transform="rotate(93.278 732.888 331.159)" fill="white"/>
<circle cx="738.843" cy="384.587" r="4.5" transform="rotate(93.278 738.843 384.587)" fill="white"/>
<circle cx="737.765" cy="383.451" r="4.5" transform="rotate(23.5676 737.765 383.451)" fill="white"/>
<circle cx="755.365" cy="323.431" r="4.5" transform="rotate(93.278 755.365 323.431)" fill="white"/>
<circle cx="785.831" cy="316.161" r="4.5" transform="rotate(93.278 785.831 316.161)" fill="white"/>
<circle cx="812.44" cy="358.753" r="4.5" transform="rotate(93.278 812.44 358.753)" fill="white"/>
<circle cx="795.951" cy="366.823" r="4.5" transform="rotate(93.278 795.951 366.823)" fill="white"/>
<circle cx="792.331" cy="342.576" r="4.5" transform="rotate(93.278 792.331 342.576)" fill="white"/>
<circle cx="801.317" cy="343.091" r="4.5" transform="rotate(93.278 801.317 343.091)" fill="white"/>
<circle cx="773.158" cy="366.609" r="4.5" transform="rotate(-103.093 773.158 366.609)" fill="white"/>
<circle cx="745.977" cy="382.17" r="4.5" transform="rotate(-103.093 745.977 382.17)" fill="white"/>
<circle cx="822.97" cy="332.312" r="4.5" transform="rotate(93.278 822.97 332.312)" fill="white"/>
<circle cx="828.924" cy="385.739" r="4.5" transform="rotate(93.278 828.924 385.739)" fill="white"/>
<circle cx="827.846" cy="384.604" r="4.5" transform="rotate(23.5676 827.846 384.604)" fill="white"/>
<circle cx="889.938" cy="387.231" r="4.5" transform="rotate(93.278 889.938 387.231)" fill="white"/>
<circle cx="710.215" cy="282.231" r="4.5" transform="rotate(122.317 710.215 282.231)" fill="white"/>
<circle cx="740.379" cy="290.662" r="4.5" transform="rotate(122.317 740.379 290.662)" fill="white"/>
<circle cx="700.464" cy="277.052" r="4.5" transform="rotate(-74.0539 700.464 277.052)" fill="white"/>
<circle cx="698.678" cy="301.501" r="4.5" transform="rotate(-74.0539 698.678 301.501)" fill="white"/>
<circle cx="756.004" cy="282.798" r="4.5" transform="rotate(122.317 756.004 282.798)" fill="white"/>
<circle cx="802.225" cy="301.387" r="4.5" transform="rotate(122.317 802.225 301.387)" fill="white"/>
<circle cx="780.839" cy="277.209" r="4.5" transform="rotate(122.317 780.839 277.209)" fill="white"/>
<circle cx="667.75" cy="199.009" r="4.5" transform="rotate(93.278 667.75 199.009)" fill="white"/>
<circle cx="694.358" cy="241.6" r="4.5" transform="rotate(93.278 694.358 241.6)" fill="white"/>
<circle cx="677.87" cy="249.67" r="4.5" transform="rotate(93.278 677.87 249.67)" fill="white"/>
<circle cx="674.25" cy="225.424" r="4.5" transform="rotate(93.278 674.25 225.424)" fill="white"/>
<circle cx="683.235" cy="225.938" r="4.5" transform="rotate(93.278 683.235 225.938)" fill="white"/>
<circle cx="704.888" cy="215.159" r="4.5" transform="rotate(93.278 704.888 215.159)" fill="white"/>
<circle cx="710.843" cy="268.587" r="4.5" transform="rotate(93.278 710.843 268.587)" fill="white"/>
<circle cx="709.765" cy="267.451" r="4.5" transform="rotate(23.5676 709.765 267.451)" fill="white"/>
<circle cx="727.365" cy="207.431" r="4.5" transform="rotate(93.278 727.365 207.431)" fill="white"/>
<circle cx="757.831" cy="200.161" r="4.5" transform="rotate(93.278 757.831 200.161)" fill="white"/>
<circle cx="784.44" cy="242.753" r="4.5" transform="rotate(93.278 784.44 242.753)" fill="white"/>
<circle cx="767.951" cy="250.823" r="4.5" transform="rotate(93.278 767.951 250.823)" fill="white"/>
<circle cx="764.331" cy="226.576" r="4.5" transform="rotate(93.278 764.331 226.576)" fill="white"/>
<circle cx="773.317" cy="227.091" r="4.5" transform="rotate(93.278 773.317 227.091)" fill="white"/>
<circle cx="745.158" cy="250.609" r="4.5" transform="rotate(-103.093 745.158 250.609)" fill="white"/>
<circle cx="717.977" cy="266.17" r="4.5" transform="rotate(-103.093 717.977 266.17)" fill="white"/>
<circle cx="794.97" cy="216.312" r="4.5" transform="rotate(93.278 794.97 216.312)" fill="white"/>
<circle cx="800.924" cy="269.739" r="4.5" transform="rotate(93.278 800.924 269.739)" fill="white"/>
<circle cx="799.846" cy="268.604" r="4.5" transform="rotate(23.5676 799.846 268.604)" fill="white"/>
<circle cx="861.938" cy="271.231" r="4.5" transform="rotate(93.278 861.938 271.231)" fill="white"/>
<circle cx="682.215" cy="166.231" r="4.5" transform="rotate(122.317 682.215 166.231)" fill="white"/>
<circle cx="712.379" cy="174.662" r="4.5" transform="rotate(122.317 712.379 174.662)" fill="white"/>
<circle cx="672.464" cy="161.052" r="4.5" transform="rotate(-74.0539 672.464 161.052)" fill="white"/>
<circle cx="670.678" cy="185.501" r="4.5" transform="rotate(-74.0539 670.678 185.501)" fill="white"/>
<circle cx="728.004" cy="166.798" r="4.5" transform="rotate(122.317 728.004 166.798)" fill="white"/>
<circle cx="774.225" cy="185.387" r="4.5" transform="rotate(122.317 774.225 185.387)" fill="white"/>
<circle cx="752.839" cy="161.209" r="4.5" transform="rotate(122.317 752.839 161.209)" fill="white"/>
<circle cx="668.481" cy="110.22" r="4.5" transform="rotate(-22.8712 668.481 110.22)" fill="white"/>
<circle cx="682.992" cy="121.464" r="4.5" transform="rotate(-22.8712 682.992 121.464)" fill="white"/>
<circle cx="662.822" cy="135.399" r="4.5" transform="rotate(-22.8712 662.822 135.399)" fill="white"/>
<circle cx="659.324" cy="127.106" r="4.5" transform="rotate(-22.8712 659.324 127.106)" fill="white"/>
<circle cx="692.846" cy="142.019" r="4.5" transform="rotate(140.758 692.846 142.019)" fill="white"/>
<circle cx="685.441" cy="83.5298" r="4.5" transform="rotate(-22.8712 685.441 83.5298)" fill="white"/>
<circle cx="684.896" cy="84.9974" r="4.5" transform="rotate(-92.5815 684.896 84.9974)" fill="white"/>
<circle cx="784.518" cy="48.2488" r="4.5" transform="rotate(-22.8712 784.518 48.2488)" fill="white"/>
<circle cx="793.071" cy="81.3892" r="4.5" transform="rotate(-22.8712 793.071 81.3892)" fill="white"/>
<circle cx="668.481" cy="110.22" r="4.5" transform="rotate(-22.8712 668.481 110.22)" fill="white"/>
<circle cx="682.992" cy="121.464" r="4.5" transform="rotate(-22.8712 682.992 121.464)" fill="white"/>
<circle cx="662.822" cy="135.399" r="4.5" transform="rotate(-22.8712 662.822 135.399)" fill="white"/>
<circle cx="659.324" cy="127.106" r="4.5" transform="rotate(-22.8712 659.324 127.106)" fill="white"/>
<circle cx="692.846" cy="142.019" r="4.5" transform="rotate(140.758 692.846 142.019)" fill="white"/>
<circle cx="685.441" cy="83.5298" r="4.5" transform="rotate(-22.8712 685.441 83.5298)" fill="white"/>
<circle cx="684.896" cy="84.9974" r="4.5" transform="rotate(-92.5815 684.896 84.9974)" fill="white"/>
<circle cx="673.85" cy="155.469" r="4.5" transform="rotate(99.446 673.85 155.469)" fill="white"/>
<circle cx="707.134" cy="121.448" r="4.5" transform="rotate(70.4068 707.134 121.448)" fill="white"/>
<circle cx="723.39" cy="143.26" r="4.5" transform="rotate(70.4068 723.39 143.26)" fill="white"/>
<circle cx="731.868" cy="140.242" r="4.5" transform="rotate(70.4068 731.868 140.242)" fill="white"/>
<circle cx="786.309" cy="156.43" r="4.5" fill="white"/>
<circle cx="777.309" cy="126.43" r="4.5" fill="white"/>
<circle cx="818.309" cy="97.4297" r="4.5" fill="white"/>
<circle cx="827.309" cy="113.43" r="4.5" fill="white"/>
<circle cx="803.309" cy="118.43" r="4.5" fill="white"/>
<circle cx="803.309" cy="109.43" r="4.5" fill="white"/>
<circle cx="828.398" cy="136.198" r="4.5" transform="rotate(163.629 828.398 136.198)" fill="white"/>
<circle cx="845.489" cy="162.445" r="4.5" transform="rotate(163.629 845.489 162.445)" fill="white"/>
<circle cx="791.309" cy="88.4297" r="4.5" fill="white"/>
<circle cx="844.309" cy="79.4297" r="4.5" fill="white"/>
<circle cx="843.236" cy="80.5701" r="4.5" transform="rotate(-69.7104 843.236 80.5701)" fill="white"/>
<circle cx="786.309" cy="156.43" r="4.5" fill="white"/>
<circle cx="777.309" cy="126.43" r="4.5" fill="white"/>
<circle cx="818.309" cy="97.4297" r="4.5" fill="white"/>
<circle cx="827.309" cy="113.43" r="4.5" fill="white"/>
<circle cx="803.309" cy="118.43" r="4.5" fill="white"/>
<circle cx="803.309" cy="109.43" r="4.5" fill="white"/>
<circle cx="828.398" cy="136.198" r="4.5" transform="rotate(163.629 828.398 136.198)" fill="white"/>
<circle cx="845.489" cy="162.445" r="4.5" transform="rotate(163.629 845.489 162.445)" fill="white"/>
<circle cx="791.309" cy="88.4297" r="4.5" fill="white"/>
<circle cx="844.309" cy="79.4297" r="4.5" fill="white"/>
<circle cx="843.236" cy="80.5701" r="4.5" transform="rotate(-69.7104 843.236 80.5701)" fill="white"/>
<circle cx="780.194" cy="187.431" r="4.5" transform="rotate(93.278 780.194 187.431)" fill="white"/>
<circle cx="810.66" cy="180.161" r="4.5" transform="rotate(93.278 810.66 180.161)" fill="white"/>
<circle cx="817.16" cy="206.576" r="4.5" transform="rotate(93.278 817.16 206.576)" fill="white"/>
<circle cx="826.147" cy="207.091" r="4.5" transform="rotate(93.278 826.147 207.091)" fill="white"/>
<circle cx="847.799" cy="196.311" r="4.5" transform="rotate(93.278 847.799 196.311)" fill="white"/>
<circle cx="765.208" cy="154.661" r="4.5" transform="rotate(122.317 765.208 154.661)" fill="white"/>
<circle cx="780.833" cy="146.797" r="4.5" transform="rotate(122.317 780.833 146.797)" fill="white"/>
<circle cx="827.054" cy="165.386" r="4.5" transform="rotate(122.317 827.054 165.386)" fill="white"/>
<circle cx="805.668" cy="141.208" r="4.5" transform="rotate(122.317 805.668 141.208)" fill="white"/>
<circle cx="892.024" cy="206.02" r="4.5" transform="rotate(122.317 892.024 206.02)" fill="white"/>
<circle cx="882.272" cy="200.841" r="4.5" transform="rotate(-74.0539 882.272 200.841)" fill="white"/>
<circle cx="849.559" cy="122.797" r="4.5" transform="rotate(93.278 849.559 122.797)" fill="white"/>
<circle cx="876.167" cy="165.389" r="4.5" transform="rotate(93.278 876.167 165.389)" fill="white"/>
<circle cx="859.679" cy="173.459" r="4.5" transform="rotate(93.278 859.679 173.459)" fill="white"/>
<circle cx="856.059" cy="149.212" r="4.5" transform="rotate(93.278 856.059 149.212)" fill="white"/>
<circle cx="865.044" cy="149.727" r="4.5" transform="rotate(93.278 865.044 149.727)" fill="white"/>
<circle cx="886.696" cy="138.947" r="4.5" transform="rotate(93.278 886.696 138.947)" fill="white"/>
<circle cx="892.651" cy="192.376" r="4.5" transform="rotate(93.278 892.651 192.376)" fill="white"/>
<circle cx="891.573" cy="191.24" r="4.5" transform="rotate(23.5676 891.573 191.24)" fill="white"/>
<circle cx="899.785" cy="189.959" r="4.5" transform="rotate(-103.093 899.785 189.959)" fill="white"/>
<circle cx="864.024" cy="90.0193" r="4.5" transform="rotate(122.317 864.024 90.0193)" fill="white"/>
<circle cx="894.188" cy="98.4509" r="4.5" transform="rotate(122.317 894.188 98.4509)" fill="white"/>
<circle cx="854.272" cy="84.8406" r="4.5" transform="rotate(-74.0539 854.272 84.8406)" fill="white"/>
<circle cx="852.487" cy="109.29" r="4.5" transform="rotate(-74.0539 852.487 109.29)" fill="white"/>
<circle cx="844.631" cy="59.1873" r="4.5" transform="rotate(-22.8712 844.631 59.1873)" fill="white"/>
<circle cx="841.133" cy="50.8953" r="4.5" transform="rotate(-22.8712 841.133 50.8953)" fill="white"/>
<circle cx="874.654" cy="65.8074" r="4.5" transform="rotate(140.758 874.654 65.8074)" fill="white"/>
<circle cx="844.631" cy="59.1873" r="4.5" transform="rotate(-22.8712 844.631 59.1873)" fill="white"/>
<circle cx="841.133" cy="50.8953" r="4.5" transform="rotate(-22.8712 841.133 50.8953)" fill="white"/>
<circle cx="874.654" cy="65.8074" r="4.5" transform="rotate(140.758 874.654 65.8074)" fill="white"/>
<circle cx="855.658" cy="79.2581" r="4.5" transform="rotate(99.446 855.658 79.2581)" fill="white"/>
<circle cx="905.198" cy="67.0483" r="4.5" transform="rotate(70.4068 905.198 67.0483)" fill="white"/>
<circle cx="842.729" cy="357.364" r="4.5" transform="rotate(-46.9224 842.729 357.364)" fill="white"/>
<circle cx="814.67" cy="343.448" r="4.5" transform="rotate(-46.9224 814.67 343.448)" fill="white"/>
<circle cx="821.489" cy="293.694" r="4.5" transform="rotate(-46.9224 821.489 293.694)" fill="white"/>
<circle cx="839.323" cy="298.048" r="4.5" transform="rotate(-46.9224 839.323 298.048)" fill="white"/>
<circle cx="826.584" cy="318.993" r="4.5" transform="rotate(-46.9224 826.584 318.993)" fill="white"/>
<circle cx="820.01" cy="312.846" r="4.5" transform="rotate(-46.9224 820.01 312.846)" fill="white"/>
<circle cx="856.698" cy="312.802" r="4.5" transform="rotate(116.707 856.698 312.802)" fill="white"/>
<circle cx="887.543" cy="318.245" r="4.5" transform="rotate(116.707 887.543 318.245)" fill="white"/>
<circle cx="796.475" cy="307.269" r="4.5" transform="rotate(-46.9224 796.475 307.269)" fill="white"/>
<circle cx="826.1" cy="262.409" r="4.5" transform="rotate(-46.9224 826.1 262.409)" fill="white"/>
<circle cx="826.201" cy="263.971" r="4.5" transform="rotate(-116.633 826.201 263.971)" fill="white"/>
<circle cx="902.196" cy="189.812" r="4.5" transform="rotate(-46.9224 902.196 189.812)" fill="white"/>
<circle cx="842.729" cy="357.364" r="4.5" transform="rotate(-46.9224 842.729 357.364)" fill="white"/>
<circle cx="814.67" cy="343.448" r="4.5" transform="rotate(-46.9224 814.67 343.448)" fill="white"/>
<circle cx="821.489" cy="293.694" r="4.5" transform="rotate(-46.9224 821.489 293.694)" fill="white"/>
<circle cx="839.323" cy="298.048" r="4.5" transform="rotate(-46.9224 839.323 298.048)" fill="white"/>
<circle cx="826.584" cy="318.993" r="4.5" transform="rotate(-46.9224 826.584 318.993)" fill="white"/>
<circle cx="820.01" cy="312.846" r="4.5" transform="rotate(-46.9224 820.01 312.846)" fill="white"/>
<circle cx="856.698" cy="312.802" r="4.5" transform="rotate(116.707 856.698 312.802)" fill="white"/>
<circle cx="887.543" cy="318.245" r="4.5" transform="rotate(116.707 887.543 318.245)" fill="white"/>
<circle cx="796.475" cy="307.269" r="4.5" transform="rotate(-46.9224 796.475 307.269)" fill="white"/>
<circle cx="826.1" cy="262.409" r="4.5" transform="rotate(-46.9224 826.1 262.409)" fill="white"/>
<circle cx="826.201" cy="263.971" r="4.5" transform="rotate(-116.633 826.201 263.971)" fill="white"/>
<circle cx="861.197" cy="383.003" r="4.5" transform="rotate(46.3556 861.197 383.003)" fill="white"/>
<circle cx="876.695" cy="355.785" r="4.5" transform="rotate(46.3556 876.695 355.785)" fill="white"/>
<circle cx="900.429" cy="369.078" r="4.5" transform="rotate(46.3556 900.429 369.078)" fill="white"/>
<circle cx="827.026" cy="371.568" r="4.5" transform="rotate(75.3948 827.026 371.568)" fill="white"/>
<circle cx="831.954" cy="354.784" r="4.5" transform="rotate(75.3948 831.954 354.784)" fill="white"/>
<circle cx="877.099" cy="333.72" r="4.5" transform="rotate(75.3948 877.099 333.72)" fill="white"/>
<circle cx="844.833" cy="332.827" r="4.5" transform="rotate(75.3948 844.833 332.827)" fill="white"/>
<circle cx="861.362" cy="288.194" r="4.5" transform="rotate(46.3556 861.362 288.194)" fill="white"/>
<circle cx="905.279" cy="315.403" r="4.5" transform="rotate(46.3556 905.279 315.403)" fill="white"/>
<circle cx="885.096" cy="301.487" r="4.5" transform="rotate(46.3556 885.096 301.487)" fill="white"/>
<circle cx="891.609" cy="295.276" r="4.5" transform="rotate(46.3556 891.609 295.276)" fill="white"/>
<circle cx="898.523" cy="272.098" r="4.5" transform="rotate(46.3556 898.523 272.098)" fill="white"/>
<circle cx="847.3" cy="255.241" r="4.5" transform="rotate(75.3948 847.3 255.241)" fill="white"/>
<circle cx="874.06" cy="238.967" r="4.5" transform="rotate(75.3948 874.06 238.967)" fill="white"/>
<circle cx="836.857" cy="258.827" r="4.5" transform="rotate(-120.976 836.857 258.827)" fill="white"/>
<circle cx="853.496" cy="276.83" r="4.5" transform="rotate(-120.976 853.496 276.83)" fill="white"/>
<circle cx="878.987" cy="222.183" r="4.5" transform="rotate(75.3948 878.987 222.183)" fill="white"/>
<circle cx="891.867" cy="200.225" r="4.5" transform="rotate(75.3948 891.867 200.225)" fill="white"/>
<circle cx="811.534" cy="248.348" r="4.5" transform="rotate(-69.7935 811.534 248.348)" fill="white"/>
<circle cx="803.088" cy="245.24" r="4.5" transform="rotate(-69.7935 803.088 245.24)" fill="white"/>
<circle cx="836.875" cy="230.94" r="4.5" transform="rotate(93.8353 836.875 230.94)" fill="white"/>
<circle cx="811.534" cy="248.348" r="4.5" transform="rotate(-69.7935 811.534 248.348)" fill="white"/>
<circle cx="803.088" cy="245.24" r="4.5" transform="rotate(-69.7935 803.088 245.24)" fill="white"/>
<circle cx="836.875" cy="230.94" r="4.5" transform="rotate(93.8353 836.875 230.94)" fill="white"/>
<circle cx="833.726" cy="254.002" r="4.5" transform="rotate(52.5236 833.726 254.002)" fill="white"/>
<circle cx="858.643" cy="209.477" r="4.5" transform="rotate(23.4844 858.643 209.477)" fill="white"/>
<circle cx="862.229" cy="201.223" r="4.5" transform="rotate(23.4844 862.229 201.223)" fill="white"/>
<circle cx="747.629" cy="121.894" r="4.5" transform="rotate(70.4068 747.629 121.894)" fill="white"/>
<circle cx="765.336" cy="106.038" r="4.5" transform="rotate(70.4068 765.336 106.038)" fill="white"/>
<circle cx="790.581" cy="87.4987" r="4.5" transform="rotate(70.4068 790.581 87.4987)" fill="white"/>
<circle cx="806.836" cy="109.311" r="4.5" transform="rotate(70.4068 806.836 109.311)" fill="white"/>
<circle cx="815.316" cy="106.292" r="4.5" transform="rotate(70.4068 815.316 106.292)" fill="white"/>
<circle cx="707.722" cy="85.6248" r="4.5" transform="rotate(99.446 707.722 85.6248)" fill="white"/>
<circle cx="738.792" cy="81.6699" r="4.5" transform="rotate(99.446 738.792 81.6699)" fill="white"/>
<circle cx="696.724" cy="84.6431" r="4.5" transform="rotate(-96.9251 696.724 84.6431)" fill="white"/>
<circle cx="704.582" cy="107.864" r="4.5" transform="rotate(-96.9251 704.582 107.864)" fill="white"/>
<circle cx="750.132" cy="68.3511" r="4.5" transform="rotate(99.446 750.132 68.3511)" fill="white"/>
<circle cx="799.944" cy="67.5144" r="4.5" transform="rotate(99.446 799.944 67.5144)" fill="white"/>
<circle cx="770.842" cy="53.5486" r="4.5" transform="rotate(99.446 770.842 53.5486)" fill="white"/>
<circle cx="680.052" cy="56.8665" r="4.5" transform="rotate(-22.8712 680.052 56.8665)" fill="white"/>
<circle cx="694.563" cy="68.1106" r="4.5" transform="rotate(-22.8712 694.563 68.1106)" fill="white"/>
<circle cx="674.393" cy="82.0452" r="4.5" transform="rotate(-22.8712 674.393 82.0452)" fill="white"/>
<circle cx="670.895" cy="73.7527" r="4.5" transform="rotate(-22.8712 670.895 73.7527)" fill="white"/>
<circle cx="704.417" cy="88.6653" r="4.5" transform="rotate(140.758 704.417 88.6653)" fill="white"/>
<circle cx="697.012" cy="30.1761" r="4.5" transform="rotate(-22.8712 697.012 30.1761)" fill="white"/>
<circle cx="696.468" cy="31.6437" r="4.5" transform="rotate(-92.5815 696.468 31.6437)" fill="white"/>
<circle cx="796.09" cy="-5.10471" r="4.5" transform="rotate(-22.8712 796.09 -5.10471)" fill="white"/>
<circle cx="804.642" cy="28.0354" r="4.5" transform="rotate(-22.8712 804.642 28.0354)" fill="white"/>
<circle cx="680.052" cy="56.8665" r="4.5" transform="rotate(-22.8712 680.052 56.8665)" fill="white"/>
<circle cx="694.563" cy="68.1106" r="4.5" transform="rotate(-22.8712 694.563 68.1106)" fill="white"/>
<circle cx="674.393" cy="82.0452" r="4.5" transform="rotate(-22.8712 674.393 82.0452)" fill="white"/>
<circle cx="670.895" cy="73.7527" r="4.5" transform="rotate(-22.8712 670.895 73.7527)" fill="white"/>
<circle cx="704.417" cy="88.6653" r="4.5" transform="rotate(140.758 704.417 88.6653)" fill="white"/>
<circle cx="697.012" cy="30.1761" r="4.5" transform="rotate(-22.8712 697.012 30.1761)" fill="white"/>
<circle cx="696.468" cy="31.6437" r="4.5" transform="rotate(-92.5815 696.468 31.6437)" fill="white"/>
<circle cx="685.421" cy="102.115" r="4.5" transform="rotate(99.446 685.421 102.115)" fill="white"/>
<circle cx="718.705" cy="68.0942" r="4.5" transform="rotate(70.4068 718.705 68.0942)" fill="white"/>
<circle cx="734.961" cy="89.9062" r="4.5" transform="rotate(70.4068 734.961 89.9062)" fill="white"/>
<circle cx="743.44" cy="86.8881" r="4.5" transform="rotate(70.4068 743.44 86.8881)" fill="white"/>
<circle cx="759.2" cy="68.5405" r="4.5" transform="rotate(70.4068 759.2 68.5405)" fill="white"/>
<circle cx="776.907" cy="52.6845" r="4.5" transform="rotate(70.4068 776.907 52.6845)" fill="white"/>
<circle cx="802.152" cy="34.145" r="4.5" transform="rotate(70.4068 802.152 34.145)" fill="white"/>
<circle cx="818.407" cy="55.957" r="4.5" transform="rotate(70.4068 818.407 55.957)" fill="white"/>
<circle cx="826.888" cy="52.9389" r="4.5" transform="rotate(70.4068 826.888 52.9389)" fill="white"/>
<circle cx="719.293" cy="32.2713" r="4.5" transform="rotate(99.446 719.293 32.2713)" fill="white"/>
<circle cx="750.364" cy="28.3162" r="4.5" transform="rotate(99.446 750.364 28.3162)" fill="white"/>
<circle cx="708.296" cy="31.2896" r="4.5" transform="rotate(-96.9251 708.296 31.2896)" fill="white"/>
<circle cx="716.153" cy="54.5108" r="4.5" transform="rotate(-96.9251 716.153 54.5108)" fill="white"/>
<circle cx="761.703" cy="14.9973" r="4.5" transform="rotate(99.446 761.703 14.9973)" fill="white"/>
<circle cx="811.515" cy="14.1609" r="4.5" transform="rotate(99.446 811.515 14.1609)" fill="white"/>
<circle cx="782.413" cy="0.195081" r="4.5" transform="rotate(99.446 782.413 0.195081)" fill="white"/>
</g>
<defs>
<clipPath id="clip0_321_23">
<rect width="700" height="900" fill="white" transform="matrix(0 -1 1 0 0 700)"/>
</clipPath>
</defs>
</svg>
